<svg width="39" height="26" viewBox="0 0 39 26" fill="none" xmlns="http://www.w3.org/2000/svg">
<path d="M16.9538 1H2L6.43077 6.64706H13.0769V17.2353H6.43077L2 25H16.9538V1Z" fill="#C27E00"/>
<path d="M21.3846 25V1H26.9231L38 25H32.4615L24.1538 6.64706L26.9231 25H21.3846Z" fill="#C27E00"/>
<path d="M38 1H32.4615L38 13.7059V1Z" fill="#C27E00"/>
<path d="M16.9538 1H2L6.43077 6.64706H13.0769V17.2353H6.43077L2 25H16.9538V1Z" stroke="#FFA500"/>
<path d="M21.3846 25V1H26.9231L38 25H32.4615L24.1538 6.64706L26.9231 25H21.3846Z" stroke="#FFA500"/>
<path d="M38 1H32.4615L38 13.7059V1Z" stroke="#FFA500"/>
</svg>
